<?xml version="1.0" standalone="no"?>
<!DOCTYPE svg PUBLIC "-//W3C//DTD SVG 20010904//EN"
 "http://www.w3.org/TR/2001/REC-SVG-20010904/DTD/svg10.dtd">
<svg version="1.0" xmlns="http://www.w3.org/2000/svg"
 width="485.000000pt" height="515.000000pt" viewBox="0 0 485.000000 515.000000"
 preserveAspectRatio="xMidYMid meet">

<g transform="translate(0.000000,515.000000) scale(0.100000,-0.100000)"
fill="#000000" stroke="none">
<path d="M1428 5143 c7 -3 16 -2 19 1 4 3 -2 6 -13 5 -11 0 -14 -3 -6 -6z"/>
<path d="M1520 5137 c-45 -13 -43 -10 -32 -50 6 -20 8 -38 4 -41 -7 -8 -33 44
-26 55 3 5 0 9 -5 9 -6 0 -11 -7 -11 -15 0 -8 -7 -15 -15 -15 -10 0 -15 -11
-15 -35 0 -19 5 -35 10 -35 6 0 10 9 10 20 0 11 5 20 10 20 19 0 10 -39 -11
-51 -14 -7 -19 -17 -16 -30 4 -15 2 -17 -6 -10 -7 5 -12 30 -11 55 1 51 -12
58 -39 21 -17 -23 -17 -25 4 -35 24 -13 15 -28 -21 -35 -25 -5 -47 -21 -39
-30 3 -2 20 1 37 7 30 11 34 10 66 -21 19 -19 36 -46 39 -64 3 -25 2 -28 -8
-14 -7 10 -17 17 -22 17 -15 0 -26 -81 -13 -94 14 -14 13 -31 -2 -18 -7 5 -24
13 -37 17 -22 7 -23 5 -20 -39 4 -44 -3 -60 -15 -33 -3 6 -2 -1 1 -17 4 -20 3
-27 -6 -22 -7 5 -11 0 -11 -13 0 -12 -4 -21 -10 -21 -5 0 -10 -5 -10 -11 0 -6
-6 -25 -13 -42 -22 -50 -35 -98 -42 -152 -3 -27 -10 -63 -15 -80 -5 -16 -12
-46 -14 -65 -3 -19 -12 -69 -20 -110 -23 -109 -20 -282 8 -455 3 -16 7 -43 9
-60 11 -70 30 -161 38 -176 5 -9 9 -33 11 -53 1 -21 7 -36 15 -36 7 0 13 -4
13 -10 0 -5 -25 -10 -55 -10 -48 0 -60 -4 -80 -26 -14 -15 -24 -34 -24 -43 1
-13 2 -13 6 2 6 22 54 47 91 47 37 0 60 -32 69 -95 3 -26 11 -45 18 -45 18 0
38 -119 24 -137 -8 -9 -8 -14 3 -18 8 -3 15 -22 16 -43 2 -20 5 -44 7 -52 6
-20 -10 -44 -24 -36 -6 4 -11 14 -11 22 0 9 -7 14 -17 12 -15 -2 -17 3 -15 32
2 19 6 44 9 55 3 13 2 17 -5 10 -5 -5 -13 -37 -17 -70 l-6 -60 45 -23 46 -22
0 -58 c0 -60 11 -82 42 -82 22 0 24 26 2 34 -9 4 -13 13 -10 24 11 35 -29 347
-60 467 -31 121 -33 137 -17 123 13 -10 15 -9 12 7 -3 11 -9 20 -16 20 -20 0
-25 12 -25 58 0 28 -5 47 -13 51 -7 2 -15 22 -18 43 -3 21 -9 50 -12 66 -6 22
-4 27 11 27 32 0 51 17 37 31 -10 10 -17 9 -32 -5 -13 -12 -21 -14 -26 -6 -10
16 12 38 46 45 16 4 34 16 40 27 10 18 9 20 -6 14 -15 -5 -16 -4 -6 8 22 26 3
38 -29 19 -30 -17 -56 -10 -30 8 11 8 12 12 3 16 -7 2 -13 8 -13 12 0 11 50
32 60 26 5 -3 11 -1 15 5 10 16 -43 32 -66 20 -16 -9 -19 -7 -19 14 0 14 4 27
9 30 4 3 6 17 3 31 -3 19 0 25 14 26 11 0 33 2 49 4 17 1 24 1 18 -2 -18 -6
-16 -33 1 -33 15 0 56 46 56 62 0 6 -13 7 -31 3 -22 -5 -29 -4 -25 4 4 6 15
11 25 11 19 0 38 42 21 48 -5 2 -6 10 -3 18 7 18 -6 18 -30 0 -10 -8 -27 -12
-37 -9 -30 8 -24 -12 8 -27 15 -7 22 -15 15 -17 -7 -3 -13 -11 -13 -19 0 -15
-1 -16 -41 -18 -18 -1 -25 2 -22 11 3 6 1 18 -3 25 -11 17 -11 58 -1 65 4 3
12 16 18 30 6 16 15 23 27 21 9 -2 22 3 28 11 10 13 16 13 37 2 20 -11 31 -11
61 0 30 11 36 18 36 41 0 36 -3 44 -15 40 -5 -1 0 6 12 16 14 13 18 23 13 32
-10 15 -4 30 11 30 5 0 9 -7 9 -15 0 -8 5 -15 10 -15 6 0 10 8 10 19 0 10 6
24 14 30 11 9 13 7 10 -11 -3 -13 5 -33 16 -47 20 -23 22 -23 38 -8 15 16 15
17 -1 17 -21 0 -40 45 -33 76 4 13 1 26 -4 29 -6 4 -8 11 -4 16 4 6 13 4 24
-6 20 -18 40 -13 40 9 0 8 11 14 25 14 21 0 24 -5 22 -30 -2 -26 2 -31 25 -33
25 -3 26 -2 17 22 -5 14 -8 28 -6 30 4 3 47 -63 47 -72 0 -2 -14 -10 -31 -19
-24 -12 -35 -13 -49 -3 -22 13 -36 5 -24 -15 4 -7 7 -29 5 -50 l-2 -37 38 6
c50 8 51 9 31 43 -19 34 -11 45 35 45 32 0 36 -11 7 -20 -23 -7 -27 -35 -5
-35 8 0 15 6 15 14 0 7 9 16 21 19 13 3 19 12 17 24 -3 20 5 20 97 8 l50 -7
-35 -12 c-19 -7 -39 -9 -44 -4 -14 11 -26 10 -26 -3 0 -12 96 -102 114 -107 6
-2 3 4 -8 12 -24 20 -49 68 -39 77 4 4 36 9 70 11 51 3 60 2 51 -9 -6 -7 -18
-13 -27 -14 -10 0 -11 -2 -4 -6 7 -2 27 3 44 11 34 17 110 20 144 7 12 -5 25
-4 33 2 7 5 27 11 45 12 18 2 58 5 90 9 38 4 57 2 57 -5 0 -6 -9 -13 -20 -16
-20 -5 -29 -33 -10 -33 6 0 10 5 10 10 0 6 6 10 14 10 8 0 17 9 21 20 5 16 10
17 30 8 14 -6 22 -14 20 -19 -3 -4 -1 -10 4 -13 5 -4 23 7 39 24 17 16 37 30
45 30 8 0 27 6 43 14 29 15 54 19 88 17 18 -1 18 -3 -4 -26 -23 -24 -23 -25
-3 -25 11 0 26 7 33 15 15 18 94 59 131 68 22 6 28 3 32 -15 6 -22 6 -22 28
-2 11 10 23 18 25 17 2 -2 7 -3 12 -3 4 0 1 4 -7 9 -10 6 -5 11 18 16 39 8 45
4 36 -25 -4 -12 -9 -19 -12 -16 -7 6 -126 -55 -132 -67 -2 -5 -15 -13 -30 -19
-22 -9 -23 -12 -8 -15 10 -3 35 6 55 20 70 46 120 68 126 54 3 -8 8 -7 16 5 6
10 20 23 31 28 27 15 77 -7 81 -35 2 -15 11 -20 34 -21 39 -1 53 -10 65 -41 5
-13 14 -21 19 -18 6 4 28 -11 49 -33 22 -22 52 -43 68 -46 35 -8 69 -77 74
-151 5 -97 4 -312 -3 -452 -4 -79 -4 -143 0 -143 4 0 8 8 9 18 1 9 4 51 7 92
10 136 15 181 26 221 6 22 13 56 16 77 2 20 7 55 10 77 2 22 5 47 6 55 1 8 14
39 30 68 17 28 27 52 23 52 -3 0 1 7 9 16 18 17 20 86 7 189 -7 47 -5 64 7 77
32 37 -16 169 -98 268 -57 69 -59 74 -60 103 0 16 -20 58 -45 97 -25 39 -48
76 -51 84 -3 8 -23 27 -45 42 -21 14 -39 32 -39 39 0 6 -9 20 -20 30 -11 10
-17 21 -15 25 3 4 -10 13 -28 20 -52 19 -122 54 -125 63 -5 10 -1420 9 -1424
-2 -5 -12 -48 -24 -48 -13 0 16 -23 19 -60 9z m31 -25 c-12 -22 -41 -48 -41
-36 0 8 40 54 47 54 2 0 -1 -8 -6 -18z m-51 -202 c0 -5 -7 -10 -15 -10 -8 0
-15 5 -15 10 0 6 7 10 15 10 8 0 15 -4 15 -10z m-62 -115 c-3 -3 -9 2 -12 12
-6 14 -5 15 5 6 7 -7 10 -15 7 -18z m25 -38 c4 3 7 -1 7 -11 0 -14 -4 -15 -20
-6 -11 6 -20 16 -20 22 0 7 4 7 13 -1 8 -6 17 -8 20 -4z m-43 -58 c0 -5 -9 -9
-19 -9 -11 0 -22 4 -25 9 -3 5 6 9 19 9 14 0 25 -4 25 -9z m85 -49 c3 -5 1
-10 -4 -10 -6 0 -11 5 -11 10 0 6 2 10 4 10 3 0 8 -4 11 -10z m-25 -184 c0 -3
-4 -8 -10 -11 -5 -3 -10 -1 -10 4 0 6 5 11 10 11 6 0 10 -2 10 -4z m1 -39 c-1
-12 -15 -9 -19 4 -3 6 1 10 8 8 6 -3 11 -8 11 -12z m-81 -152 c0 -10 -10 -15
-27 -15 -26 0 -26 1 -7 15 25 19 34 19 34 0z m280 -26 c0 -5 -7 -9 -15 -9 -9
0 -15 9 -15 21 0 18 2 19 15 9 8 -7 15 -16 15 -21z m-350 1 c0 -5 -14 -10 -31
-10 -17 0 -28 4 -24 10 3 6 17 10 31 10 13 0 24 -4 24 -10z m101 -20 c12 0 15
-7 11 -25 -4 -23 -6 -24 -25 -10 -27 19 -47 20 -21 1 30 -23 12 -27 -35 -9
-37 14 -44 15 -52 2 -8 -12 -10 -12 -18 1 -13 20 7 32 42 24 20 -4 29 -1 33
11 5 11 14 15 28 11 11 -3 28 -6 37 -6z m-66 -250 c3 -5 1 -10 -4 -10 -6 0
-11 5 -11 10 0 6 2 10 4 10 3 0 8 -4 11 -10z m-70 -231 c-4 -5 -16 -9 -28 -9
-21 1 -21 1 -3 15 20 15 41 11 31 -6z"/>
<path d="M1360 4854 c0 -8 5 -12 10 -9 6 4 8 11 5 16 -9 14 -15 11 -15 -7z"/>
<path d="M1370 4816 c0 -9 5 -16 10 -16 6 0 10 4 10 9 0 6 -4 13 -10 16 -5 3
-10 -1 -10 -9z"/>
<path d="M1300 4740 c0 -5 5 -10 10 -10 6 0 10 5 10 10 0 6 -4 10 -10 10 -5 0
-10 -4 -10 -10z"/>
<path d="M1587 4363 c-12 -12 -7 -41 8 -47 10 -3 15 1 15 12 0 22 -14 44 -23
35z"/>
<path d="M2810 4345 c-10 -12 -10 -15 3 -15 9 0 18 4 22 10 3 5 13 6 22 3 11
-4 14 -3 9 5 -10 17 -41 15 -56 -3z"/>
<path d="M3070 4340 c0 -5 5 -10 10 -10 6 0 10 5 10 10 0 6 -4 10 -10 10 -5 0
-10 -4 -10 -10z"/>
<path d="M2770 4300 c0 -5 7 -10 16 -10 8 0 12 5 9 10 -3 6 -10 10 -16 10 -5
0 -9 -4 -9 -10z"/>
<path d="M1810 4290 c0 -5 5 -10 11 -10 5 0 7 5 4 10 -3 6 -8 10 -11 10 -2 0
-4 -4 -4 -10z"/>
<path d="M2595 4290 c3 -5 10 -10 16 -10 5 0 9 5 9 10 0 6 -7 10 -16 10 -8 0
-12 -4 -9 -10z"/>
<path d="M2315 4280 c-19 -8 -19 -9 3 -9 12 -1 22 4 22 9 0 6 -1 10 -2 9 -2 0
-12 -4 -23 -9z"/>
<path d="M3166 4278 c15 -24 84 -81 91 -74 3 3 1 6 -6 6 -6 0 -15 10 -20 23
-5 12 -23 30 -41 41 -24 14 -30 15 -24 4z"/>
<path d="M2108 4273 c6 -2 18 -2 25 0 6 3 1 5 -13 5 -14 0 -19 -2 -12 -5z"/>
<path d="M2532 4260 c-19 -32 -13 -47 8 -20 11 14 20 28 20 33 0 14 -15 7 -28
-13z"/>
<path d="M2625 4269 c-11 -17 0 -20 21 -4 17 13 17 14 2 15 -9 0 -20 -5 -23
-11z"/>
<path d="M2435 4260 c4 -6 11 -8 16 -5 14 9 11 15 -7 15 -8 0 -12 -5 -9 -10z"/>
<path d="M1945 4250 c-3 -6 1 -13 10 -16 19 -8 30 0 20 15 -8 14 -22 14 -30 1z"/>
<path d="M2150 4252 c0 -4 16 -6 35 -4 19 2 35 6 35 8 0 2 -16 4 -35 4 -19 0
-35 -4 -35 -8z"/>
<path d="M2260 4250 c0 -5 -7 -10 -17 -10 -9 0 -14 -3 -10 -6 9 -9 57 5 57 16
0 6 -7 10 -15 10 -8 0 -15 -4 -15 -10z"/>
<path d="M1575 4240 c3 -5 8 -10 11 -10 2 0 4 5 4 10 0 6 -5 10 -11 10 -5 0
-7 -4 -4 -10z"/>
<path d="M2576 4234 c-5 -14 -4 -15 9 -4 17 14 19 20 6 20 -5 0 -12 -7 -15
-16z"/>
<path d="M1744 4214 c9 -8 14 -19 12 -23 -3 -4 8 -6 23 -3 16 2 32 -1 35 -7
10 -16 36 -14 36 3 0 9 -7 12 -20 9 -11 -3 -20 -1 -20 4 0 11 -44 33 -66 33
-14 0 -14 -2 0 -16z"/>
<path d="M1550 4195 c0 -19 4 -23 18 -18 30 11 33 15 21 29 -18 22 -39 17 -39
-11z"/>
<path d="M1640 4195 c0 -8 7 -15 15 -15 8 0 15 7 15 15 0 8 -7 15 -15 15 -8 0
-15 -7 -15 -15z"/>
<path d="M2060 4190 c0 -5 7 -10 16 -10 8 0 12 5 9 10 -3 6 -10 10 -16 10 -5
0 -9 -4 -9 -10z"/>
<path d="M1470 4169 c0 -11 5 -17 10 -14 6 3 10 13 10 21 0 8 -4 14 -10 14 -5
0 -10 -9 -10 -21z"/>
<path d="M1560 4150 c0 -5 4 -10 9 -10 6 0 13 5 16 10 3 6 -1 10 -9 10 -9 0
-16 -4 -16 -10z"/>
<path d="M1326 4135 c-16 -12 -17 -18 -8 -27 15 -15 47 1 47 22 0 19 -17 21
-39 5z"/>
<path d="M1407 4143 c-9 -2 -15 -9 -12 -14 9 -14 41 -11 55 6 10 12 9 15 -6
14 -11 -1 -27 -3 -37 -6z"/>
<path d="M1535 4130 c3 -5 11 -10 16 -10 6 0 7 5 4 10 -3 6 -11 10 -16 10 -6
0 -7 -4 -4 -10z"/>
<path d="M3340 4132 c0 -10 21 -32 31 -32 4 0 5 9 2 20 -5 19 -33 29 -33 12z"/>
<path d="M1828 4123 c7 -3 16 -2 19 1 4 3 -2 6 -13 5 -11 0 -14 -3 -6 -6z"/>
<path d="M1275 4100 c-3 -5 -2 -10 4 -10 5 0 13 5 16 10 3 6 2 10 -4 10 -5 0
-13 -4 -16 -10z"/>
<path d="M1406 4095 c4 -8 8 -15 10 -15 2 0 4 7 4 15 0 8 -4 15 -10 15 -5 0
-7 -7 -4 -15z"/>
<path d="M1435 4090 c3 -5 8 -10 11 -10 2 0 4 5 4 10 0 6 -5 10 -11 10 -5 0
-7 -4 -4 -10z"/>
<path d="M1260 4041 c0 -10 36 -21 44 -14 3 3 3 10 0 14 -7 12 -44 12 -44 0z"/>
<path d="M1430 4040 c0 -5 5 -10 10 -10 6 0 10 5 10 10 0 6 -4 10 -10 10 -5 0
-10 -4 -10 -10z"/>
<path d="M1375 3930 c-20 -22 -15 -36 10 -27 8 4 15 16 15 27 0 25 -2 25 -25
0z"/>
<path d="M1272 3928 c-19 -19 -14 -31 9 -25 15 4 19 2 15 -8 -3 -9 0 -12 10
-8 15 6 17 13 8 37 -7 19 -25 21 -42 4z"/>
<path d="M1430 3919 c0 -5 5 -7 10 -4 6 3 10 8 10 11 0 2 -4 4 -10 4 -5 0 -10
-5 -10 -11z"/>
<path d="M1352 3860 c-23 -22 -29 -40 -12 -40 6 0 10 4 10 10 0 5 10 18 22 30
12 11 17 20 12 20 -6 0 -20 -9 -32 -20z"/>
<path d="M1286 3814 c-4 -10 -1 -14 6 -12 15 5 23 28 10 28 -5 0 -13 -7 -16
-16z"/>
<path d="M1410 3760 c0 -5 4 -10 9 -10 6 0 13 5 16 10 3 6 -1 10 -9 10 -9 0
-16 -4 -16 -10z"/>
<path d="M1320 3646 c-9 -11 -9 -19 0 -33 11 -17 11 -17 6 1 -4 10 -1 25 5 32
6 8 9 14 6 14 -2 0 -10 -7 -17 -14z"/>
<path d="M1280 3581 c0 -11 26 -22 34 -14 3 3 3 10 0 14 -7 12 -34 11 -34 0z"/>
<path d="M1305 3540 c3 -5 8 -10 11 -10 2 0 4 5 4 10 0 6 -5 10 -11 10 -5 0
-7 -4 -4 -10z"/>
<path d="M1356 3461 c-4 -7 -5 -15 -2 -18 9 -9 19 4 14 18 -4 11 -6 11 -12 0z"/>
<path d="M3288 3433 c-16 -3 -25 -9 -22 -16 2 -7 -5 -13 -18 -13 -46 -3 -133
-16 -148 -22 -21 -9 -74 -8 -81 0 -7 10 -69 -14 -69 -26 0 -5 -10 -21 -22 -34
-16 -17 -19 -26 -10 -29 6 -3 9 -9 6 -15 -4 -6 1 -8 11 -6 10 1 23 19 29 38 9
30 16 35 46 38 l35 2 -32 -14 c-34 -15 -47 -43 -15 -32 10 4 7 -2 -8 -13 -33
-26 -18 -38 26 -22 19 7 60 14 92 17 76 6 95 9 109 17 7 4 41 9 75 11 49 2 64
6 66 19 2 10 12 17 22 17 13 0 17 -5 14 -15 -5 -11 -1 -14 15 -12 35 5 43 20
30 55 -9 26 -16 32 -39 32 -16 0 -30 4 -32 8 -4 12 -47 19 -80 15z"/>
<path d="M1885 3420 c-3 -5 -13 -6 -21 -3 -27 10 -94 -32 -86 -55 2 -7 -5 -12
-17 -12 -12 0 -21 -6 -21 -15 0 -8 -6 -15 -14 -15 -9 0 -12 7 -9 20 8 30 -11
24 -51 -16 -34 -34 -44 -61 -13 -35 8 6 30 11 48 11 19 0 77 2 129 5 128 7
180 6 201 -6 10 -5 40 -10 66 -11 27 -1 54 -6 62 -12 10 -8 15 -8 18 1 2 7 11
9 19 6 8 -3 14 1 14 8 0 9 3 10 8 4 4 -5 16 -17 26 -25 18 -14 18 -13 12 8 -8
25 5 29 24 7 7 -8 19 -15 27 -15 12 0 12 3 -1 22 -28 39 -20 50 20 27 41 -23
51 -20 32 10 -16 26 -43 38 -34 15 9 -22 -16 -12 -29 12 -7 14 -18 18 -44 16
-20 -2 -37 2 -42 10 -7 10 -11 10 -17 1 -8 -13 -62 -6 -62 8 0 5 -7 9 -15 9
-8 0 -15 -4 -15 -10 0 -5 -15 -10 -34 -10 -19 0 -47 -5 -62 -10 -24 -10 -26
-9 -21 11 5 18 2 20 -19 15 -14 -4 -24 -2 -24 4 0 6 -17 2 -39 -9 -43 -22 -82
-24 -74 -4 3 8 13 11 24 8 20 -7 59 10 59 25 0 13 -17 13 -25 0z m55 -50 c0
-5 -2 -10 -4 -10 -3 0 -8 5 -11 10 -3 6 -1 10 4 10 6 0 11 -4 11 -10z m-60
-40 c0 -5 -2 -10 -4 -10 -3 0 -8 5 -11 10 -3 6 -1 10 4 10 6 0 11 -4 11 -10z"/>
<path d="M2060 3410 c-8 -5 -10 -10 -5 -10 6 0 17 5 25 10 8 5 11 10 5 10 -5
0 -17 -5 -25 -10z"/>
<path d="M2005 3400 c-3 -5 1 -10 9 -10 8 0 18 5 21 10 3 6 -1 10 -9 10 -8 0
-18 -4 -21 -10z"/>
<path d="M1659 3343 c-13 -16 -12 -17 4 -4 9 7 17 15 17 17 0 8 -8 3 -21 -13z"/>
<path d="M2403 3341 c-10 -16 -9 -18 8 -14 10 3 19 12 19 19 0 20 -13 17 -27
-5z"/>
<path d="M2450 3313 c-8 -15 -16 -31 -18 -35 -2 -5 2 -8 8 -8 11 0 33 47 28
62 -2 6 -10 -3 -18 -19z"/>
<path d="M2880 3320 c-8 -6 -11 -10 -6 -10 5 0 3 -7 -4 -15 -7 -9 -10 -18 -7
-21 3 -3 13 6 23 20 19 29 16 40 -6 26z"/>
<path d="M1154 3284 c-4 -16 -12 -23 -20 -20 -38 15 1 -222 77 -464 60 -189
62 -192 136 -209 53 -12 62 -17 66 -40 43 -247 90 -384 168 -491 44 -61 48
-35 5 32 -33 53 -81 151 -104 213 -6 17 -18 71 -27 120 -9 50 -23 111 -32 138
-17 46 -18 47 -60 47 -54 0 -75 22 -103 109 -65 202 -60 182 -39 170 11 -5 16
-15 13 -21 -4 -6 -3 -8 4 -5 7 5 3 21 -10 49 -20 42 -20 45 -5 157 9 64 22
118 29 124 9 6 8 7 -5 3 -10 -3 -20 -6 -22 -6 -2 0 -7 -20 -11 -45 -3 -25 -9
-43 -12 -40 -9 9 -9 145 1 145 4 0 5 5 2 10 -3 6 -2 10 4 10 5 0 11 -6 14 -12
4 -10 7 -10 18 -1 18 18 -16 53 -52 53 -22 0 -30 -6 -35 -26z m5 -102 c0 -31
6 -77 15 -102 16 -46 22 -109 9 -96 -27 27 -59 277 -34 261 6 -3 10 -31 10
-63z"/>
<path d="M1660 3280 c0 -5 5 -10 11 -10 5 0 7 5 4 10 -3 6 -8 10 -11 10 -2 0
-4 -4 -4 -10z"/>
<path d="M3411 3245 c-1 -28 -6 -56 -12 -62 -6 -6 -9 -17 -7 -25 6 -15 38 56
37 81 0 9 -4 25 -9 36 -6 15 -9 7 -9 -30z"/>
<path d="M1960 3256 c0 -11 9 -16 26 -16 31 0 28 23 -4 28 -15 2 -22 -2 -22
-12z"/>
<path d="M2480 3250 c0 -5 5 -10 11 -10 5 0 7 5 4 10 -3 6 -8 10 -11 10 -2 0
-4 -4 -4 -10z"/>
<path d="M3040 3220 c-96 -19 -199 -80 -232 -138 -20 -34 -27 -31 83 -31 30 0
75 -5 100 -10 l44 -10 -24 20 c-17 14 -39 19 -82 19 -33 0 -59 4 -59 10 0 6 7
10 15 10 8 0 15 4 15 10 0 5 10 15 22 21 18 10 24 8 40 -14 23 -31 79 -51 116
-42 39 10 72 44 72 76 0 34 16 46 23 18 3 -13 10 -18 17 -14 7 4 10 16 7 26
-6 24 11 25 20 2 4 -10 11 -21 17 -25 15 -10 -14 -58 -44 -71 -14 -6 -45 -16
-70 -22 l-45 -12 28 -11 c16 -7 37 -12 47 -12 27 0 108 57 124 87 8 17 16 22
20 14 4 -6 20 -11 37 -11 16 0 29 -4 29 -10 0 -5 -4 -10 -10 -10 -5 0 -10 -5
-10 -12 0 -8 6 -6 16 4 20 20 12 45 -18 57 -13 5 -31 24 -41 42 l-18 34 29
-32 c33 -38 48 -41 55 -14 10 41 -22 53 -160 55 -70 2 -144 0 -163 -4z m15
-70 c-3 -5 -11 -10 -16 -10 -6 0 -7 5 -4 10 3 6 11 10 16 10 6 0 7 -4 4 -10z"/>
<path d="M2040 3208 c-41 -4 -92 -8 -112 -9 -20 -1 -36 -5 -34 -8 2 -3 -15 -6
-39 -6 -31 0 -58 -10 -101 -37 -59 -37 -63 -45 -48 -83 l7 -20 -23 20 c-21 18
-23 18 -17 2 4 -10 7 -22 7 -27 0 -4 9 -6 20 -3 12 3 20 2 18 -3 -2 -5 1 -9 7
-9 5 0 9 6 7 13 -3 13 -1 14 63 14 71 0 75 -1 75 -17 0 -10 10 -15 28 -15 58
0 103 -12 98 -26 -3 -8 -1 -14 4 -14 6 0 10 7 10 15 0 8 9 15 21 15 16 0 19
-4 14 -21 -5 -16 -3 -20 6 -17 8 3 13 13 11 22 -2 13 3 17 20 15 13 -1 30 1
38 4 31 12 136 30 166 28 39 -2 63 22 44 44 -7 9 -10 18 -7 22 14 13 -30 63
-72 83 l-46 21 38 -6 c22 -3 37 -2 37 4 0 11 -120 10 -240 -1z m-190 -42 c0
-2 -22 -18 -50 -36 -27 -18 -50 -36 -50 -41 0 -5 -7 -9 -15 -9 -8 0 -15 5 -15
10 0 6 4 10 9 10 5 0 32 16 61 35 51 34 60 39 60 31z m408 -33 c13 -8 21 -17
19 -20 -3 -3 -25 7 -49 22 -28 17 -34 24 -18 20 14 -4 36 -14 48 -22z m-91 -3
c3 -11 10 -17 15 -14 9 6 48 -23 48 -36 0 -9 -85 -37 -157 -51 -53 -11 -70
-10 -125 5 -35 10 -69 20 -75 22 -18 5 -16 30 3 59 15 23 16 23 35 4 10 -10
19 -23 19 -28 0 -5 12 -19 26 -30 29 -23 80 -27 118 -10 23 11 56 62 56 88 0
19 32 12 37 -9z m-127 0 c0 -5 -4 -10 -10 -10 -5 0 -10 5 -10 10 0 6 5 10 10
10 6 0 10 -4 10 -10z"/>
<path d="M2300 3201 c0 -17 15 -19 28 -5 11 12 9 14 -8 14 -11 0 -20 -4 -20
-9z"/>
<path d="M2905 3200 c-3 -5 -2 -10 4 -10 5 0 13 5 16 10 3 6 2 10 -4 10 -5 0
-13 -4 -16 -10z"/>
<path d="M2756 3089 c-14 -70 -8 -95 28 -123 19 -14 37 -26 40 -26 16 0 3 35
-20 57 -22 21 -25 30 -22 73 3 56 -15 70 -26 19z"/>
<path d="M3410 3059 c0 -24 -4 -89 -10 -144 -5 -55 -15 -170 -20 -255 -11
-150 -45 -386 -50 -345 -2 11 -6 0 -10 -25 -4 -25 -10 -58 -15 -74 -6 -22 -5
-28 6 -24 7 2 16 18 21 34 27 101 50 241 58 356 5 73 14 184 20 246 6 62 8
117 5 123 -4 5 -1 9 5 9 8 0 10 20 6 67 -7 77 -16 96 -16 32z"/>
<path d="M1616 3062 c-3 -6 -1 -14 5 -17 15 -10 25 3 12 16 -7 7 -13 7 -17 1z"/>
<path d="M2354 3055 c3 -10 -3 -20 -17 -26 -12 -6 -36 -30 -52 -53 -22 -30
-43 -45 -78 -57 -57 -19 -69 -29 -34 -29 55 0 106 31 162 98 53 64 59 82 28
82 -9 0 -13 -6 -9 -15z"/>
<path d="M3370 3031 c0 -12 5 -21 10 -21 6 0 10 6 10 14 0 8 -4 18 -10 21 -5
3 -10 -3 -10 -14z"/>
<path d="M2820 3020 c0 -14 58 -42 65 -30 3 5 -8 16 -24 25 -35 18 -41 18 -41
5z"/>
<path d="M2933 3006 c2 -6 23 -12 48 -14 53 -4 46 8 -11 18 -29 5 -40 4 -37
-4z"/>
<path d="M2892 3005 c4 -4 3 -16 -3 -27 -9 -17 -8 -19 8 -16 22 4 24 39 3 46
-8 3 -12 1 -8 -3z"/>
<path d="M2185 2990 c-3 -5 -2 -10 4 -10 5 0 13 5 16 10 3 6 2 10 -4 10 -5 0
-13 -4 -16 -10z"/>
<path d="M2781 2924 c0 -11 3 -14 6 -6 3 7 2 16 -1 19 -3 4 -6 -2 -5 -13z"/>
<path d="M2563 2915 c0 -7 6 -11 14 -8 7 3 13 6 13 8 0 2 -6 5 -13 8 -8 3 -14
-1 -14 -8z"/>
<path d="M2960 2913 c0 -5 24 -17 53 -26 61 -19 67 -20 67 -9 0 4 -21 14 -47
22 -27 8 -54 16 -60 18 -7 2 -13 -1 -13 -5z"/>
<path d="M2915 2890 c3 -5 11 -10 16 -10 6 0 7 5 4 10 -3 6 -11 10 -16 10 -6
0 -7 -4 -4 -10z"/>
<path d="M1948 2873 c18 -2 45 -2 60 0 15 2 0 4 -33 4 -33 0 -45 -2 -27 -4z"/>
<path d="M2063 2873 c9 -2 23 -2 30 0 6 3 -1 5 -18 5 -16 0 -22 -2 -12 -5z"/>
<path d="M1270 2742 c0 -12 19 -26 26 -19 2 2 -2 10 -11 17 -9 8 -15 8 -15 2z"/>
<path d="M2900 2647 c0 -8 8 -25 19 -38 10 -13 21 -33 23 -44 5 -18 6 -19 13
-2 9 22 -12 75 -36 88 -14 7 -19 6 -19 -4z"/>
<path d="M2311 2544 c0 -11 3 -14 6 -6 3 7 2 16 -1 19 -3 4 -6 -2 -5 -13z"/>
<path d="M2879 2528 c-7 -12 -25 -36 -41 -51 -15 -16 -33 -37 -38 -46 -8 -15
-6 -17 15 -13 13 2 30 10 36 18 6 8 21 14 33 14 22 0 46 17 46 32 0 5 -9 3
-20 -4 -26 -17 -32 -7 -19 31 14 39 6 52 -12 19z"/>
<path d="M2290 2504 c0 -6 11 -20 23 -32 18 -17 24 -19 24 -8 0 8 -4 13 -8 10
-4 -2 -15 6 -23 18 -9 12 -16 18 -16 12z"/>
<path d="M2465 2453 c-22 -2 -59 -6 -83 -9 l-43 -5 22 -20 c27 -23 45 -24 65
-4 30 30 92 17 144 -30 14 -12 33 -22 42 -22 15 0 15 3 3 21 -15 21 -94 77
-104 74 -3 -1 -24 -3 -46 -5z"/>
<path d="M2031 2358 c-23 -28 -39 -54 -36 -57 4 -3 10 1 15 9 6 9 10 10 10 3
0 -6 -11 -20 -25 -30 -18 -13 -23 -24 -19 -41 8 -30 25 -16 59 51 15 29 38 63
51 78 29 30 30 39 5 39 -11 0 -37 -22 -60 -52z"/>
<path d="M2750 2390 c-6 -11 -19 -20 -29 -20 -10 0 -29 -8 -42 -19 l-23 -18
22 -12 c20 -10 23 -9 32 13 5 13 17 27 27 30 20 6 49 46 33 46 -5 0 -14 -9
-20 -20z"/>
<path d="M2648 2255 c13 -9 26 -14 29 -11 8 8 3 12 -27 21 l-25 7 23 -17z"/>
<path d="M2790 2259 c0 -5 5 -7 10 -4 6 3 10 8 10 11 0 2 -4 4 -10 4 -5 0 -10
-5 -10 -11z"/>
<path d="M2563 2245 c0 -8 4 -15 9 -15 4 0 8 7 8 15 0 8 -4 15 -8 15 -5 0 -9
-7 -9 -15z"/>
<path d="M2117 2223 c-4 -3 -7 -11 -7 -17 0 -6 5 -5 12 2 6 6 9 14 7 17 -3 3
-9 2 -12 -2z"/>
<path d="M2017 2198 c-9 -32 4 -44 19 -17 12 24 10 39 -5 39 -5 0 -11 -10 -14
-22z"/>
<path d="M2418 2205 c-3 -3 -26 -7 -52 -9 -26 -2 -50 -7 -54 -11 -4 -4 19 -5
52 -2 56 6 75 12 64 22 -2 3 -7 3 -10 0z"/>
<path d="M2673 2198 c-24 -5 -43 -13 -43 -19 0 -14 61 -10 90 5 17 10 30 11
43 4 10 -5 26 -6 35 -2 9 4 23 6 30 5 6 -1 12 3 12 8 0 12 -107 11 -167 -1z"/>
<path d="M2860 2194 c0 -6 13 -9 33 -6 l32 4 -32 -21 c-18 -11 -62 -27 -98
-36 -36 -8 -83 -24 -105 -35 -35 -18 -41 -19 -46 -5 -8 21 -21 19 -27 -5 -4
-17 -14 -20 -56 -20 -40 0 -52 4 -61 20 -10 19 -8 20 50 20 38 0 59 4 55 10
-3 6 -28 10 -56 10 -37 0 -53 -5 -66 -20 -21 -24 -46 -26 -63 -5 -7 8 -24 15
-39 14 -14 0 -33 1 -41 4 -75 20 -100 29 -100 37 0 15 -68 5 -88 -13 -24 -22
-32 -21 -32 3 0 29 -27 24 -34 -7 -12 -45 32 -58 72 -20 l24 22 38 -45 c21
-25 41 -42 45 -38 4 4 -2 13 -14 20 -26 16 -29 50 -3 41 9 -3 23 -11 30 -16 7
-6 23 -12 35 -13 66 -8 122 -23 125 -33 2 -6 8 -11 13 -11 6 0 7 5 4 10 -7 12
11 12 40 1 18 -7 18 -8 1 -18 -17 -9 -17 -11 -1 -16 9 -4 25 -2 35 3 10 6 37
10 59 10 26 0 41 5 41 13 0 7 15 12 38 13 43 2 215 53 220 65 6 15 20 10 25
-8 3 -16 5 -16 12 2 17 42 26 46 55 25 25 -17 29 -18 40 -5 9 11 10 22 3 38
-9 20 -17 22 -86 22 -49 0 -77 -4 -77 -11z"/>
<path d="M2145 2190 c-3 -5 1 -10 9 -10 9 0 16 5 16 10 0 6 -4 10 -9 10 -6 0
-13 -4 -16 -10z"/>
<path d="M2450 2190 c0 -11 48 -25 57 -16 9 8 3 12 -29 20 -17 4 -28 2 -28 -4z"/>
<path d="M2546 2171 c-11 -4 -15 -10 -10 -14 13 -8 34 -4 59 11 19 11 19 11
-5 11 -14 0 -34 -4 -44 -8z"/>
<path d="M3284 2117 c-16 -34 -48 -93 -73 -130 -24 -38 -51 -96 -60 -130 -19
-71 -72 -178 -79 -159 -2 7 2 19 8 28 7 8 10 17 7 20 -3 3 -11 -5 -18 -18 -57
-108 -245 -288 -315 -301 -11 -2 -26 -6 -34 -9 -61 -21 -90 -28 -112 -28 -14
0 -31 -7 -38 -15 -14 -17 -87 -39 -183 -56 -143 -24 -383 33 -482 115 -16 14
-25 25 -18 26 6 0 15 -4 18 -10 8 -12 25 -13 25 -1 0 8 -32 22 -56 25 -6 1
-18 8 -26 17 -9 8 -30 28 -48 42 -49 42 -136 179 -150 238 -8 32 -10 79 -6
123 5 59 3 75 -12 94 l-18 23 -78 -52 c-43 -28 -90 -63 -104 -76 -14 -13 -61
-42 -104 -65 -43 -22 -106 -62 -141 -89 -141 -110 -227 -162 -507 -307 -96
-50 -209 -113 -250 -141 -169 -116 -194 -131 -249 -151 -148 -55 -211 -89
-163 -90 16 -1 16 -1 0 -14 -17 -12 -18 -42 -18 -370 l0 -356 2425 0 2425 0 0
708 -1 707 -72 34 c-60 28 -89 35 -172 42 -254 20 -429 52 -500 93 -22 13 -73
31 -114 40 -117 28 -187 53 -321 116 -69 32 -154 68 -190 80 -36 13 -76 28
-90 35 -66 32 -74 30 -106 -38z"/>
<path d="M3050 2160 c0 -5 5 -10 11 -10 5 0 7 5 4 10 -3 6 -8 10 -11 10 -2 0
-4 -4 -4 -10z"/>
<path d="M2650 2120 c0 -5 7 -10 15 -10 8 0 15 5 15 10 0 6 -7 10 -15 10 -8 0
-15 -4 -15 -10z"/>
<path d="M3041 2111 c-9 -6 -10 -11 -2 -15 13 -8 31 1 31 15 0 11 -11 11 -29
0z"/>
<path d="M2400 2062 c0 -6 5 -14 10 -17 6 -3 10 -16 10 -28 1 -20 2 -20 11 -5
7 14 5 23 -11 40 -11 12 -20 17 -20 10z"/>
<path d="M2680 2020 c0 -5 5 -10 10 -10 6 0 10 5 10 10 0 6 -4 10 -10 10 -5 0
-10 -4 -10 -10z"/>
<path d="M2519 1967 c7 -7 14 -8 21 -1 6 6 2 10 -12 11 -16 2 -18 -1 -9 -10z"/>
<path d="M2790 1971 c0 -6 4 -13 10 -16 6 -3 7 1 4 9 -7 18 -14 21 -14 7z"/>
<path d="M1670 1926 c0 -7 9 -21 20 -31 11 -10 20 -24 20 -31 0 -7 62 -75 138
-151 75 -76 133 -135 128 -130 -6 4 -16 7 -24 7 -8 0 -29 12 -48 28 -97 79
-131 96 -73 36 46 -49 95 -79 159 -98 29 -9 76 -33 104 -55 102 -76 206 -114
346 -127 68 -6 80 -4 80 9 0 18 -22 28 -40 17 -7 -5 -24 -4 -37 1 -14 5 -39 9
-58 9 -19 0 -46 5 -62 12 -15 6 -34 12 -41 14 -25 5 -107 58 -135 88 -17 18
-27 24 -24 14 5 -15 -3 -13 -44 10 -55 29 -340 305 -364 352 -16 30 -45 47
-45 26z"/>
<path d="M2825 1899 c-11 -17 1 -21 15 -4 8 9 8 15 2 15 -6 0 -14 -5 -17 -11z"/>
<path d="M2778 1863 c-10 -2 -18 -8 -18 -12 0 -15 -167 -34 -239 -27 -43 4
-72 2 -76 -4 -3 -5 -3 -11 2 -11 4 -1 17 -3 28 -5 11 -2 37 -6 58 -8 21 -2 41
-6 44 -10 11 -10 55 -7 48 4 -4 7 3 7 20 0 34 -13 35 -13 29 3 -3 8 11 17 39
24 24 7 54 21 68 32 13 11 22 20 19 20 -3 -1 -13 -3 -22 -6z"/>
<path d="M3060 1770 c0 -5 5 -10 10 -10 6 0 10 5 10 10 0 6 -4 10 -10 10 -5 0
-10 -4 -10 -10z"/>
<path d="M1700 1723 c0 -19 119 -164 120 -145 0 7 -11 24 -25 38 -14 14 -25
29 -25 35 0 13 -52 79 -62 79 -5 0 -8 -3 -8 -7z"/>
<path d="M2757 1494 c-21 -28 -18 -38 7 -28 9 3 16 17 16 30 0 29 -1 29 -23
-2z"/>
<path d="M1920 1486 c0 -3 9 -10 20 -16 11 -6 20 -8 20 -6 0 3 -9 10 -20 16
-11 6 -20 8 -20 6z"/>
<path d="M2705 1470 c3 -5 8 -10 11 -10 2 0 4 5 4 10 0 6 -5 10 -11 10 -5 0
-7 -4 -4 -10z"/>
<path d="M1980 1450 c8 -5 24 -9 35 -9 l20 0 -20 9 c-11 5 -27 9 -35 9 -13 1
-13 0 0 -9z"/>
<path d="M2635 1420 c-3 -5 -2 -10 4 -10 5 0 13 5 16 10 3 6 2 10 -4 10 -5 0
-13 -4 -16 -10z"/>
<path d="M2527 1408 c7 -8 10 -18 6 -21 -11 -12 11 -7 37 8 15 9 19 14 10 15
-8 0 -26 3 -40 7 -21 6 -23 4 -13 -9z"/>
</g>
</svg>
